<svg width="55" height="55" viewBox="0 0 55 55" fill="none" xmlns="http://www.w3.org/2000/svg">
<rect x="1" y="1" width="53" height="53" rx="9" fill="#B8D1F0" stroke="black" stroke-width="2"/>
<g clip-path="url(#clip0)">
<path d="M44.0324 8.42395L46.5759 12.2392H13.5107L16.0542 8.42395H44.0324Z" fill="white"/>
<path d="M46.5759 12.2391V14.7826H13.5107V12.2391H46.5759Z" fill="white"/>
<path d="M45.3044 14.7827V32.587H42.7609V21.1414H31.3153V17.3262H17.3262V30.0436H18.5979V33.2229H14.7827V14.7827H45.3044Z" fill="white"/>
<path d="M37.6737 40.2174V42.125H34.2655C33.8203 41.7306 33.2288 41.4891 32.5868 41.4891C31.1815 41.4891 30.0433 42.6273 30.0433 44.0326C30.0433 42.6273 28.9051 41.4891 27.4998 41.4891C26.8577 41.4891 26.2725 41.7306 25.821 42.125H18.5977V30.0435H37.6737V40.2174Z" fill="white"/>
<path d="M13.5108 41.4891C12.8687 41.4891 12.2834 41.7306 11.832 42.1249H8.42383V36.4021L11.6032 33.2228H18.5977V42.1249H15.1896C14.7443 41.7306 14.1529 41.4891 13.5108 41.4891Z" fill="white"/>
<path d="M31.3153 17.3262V21.1414H28.7718V30.0435H26.2283V27.5001H22.4131V30.0435H17.3262V17.3262H22.4131V19.8696H26.2283V17.3262H31.3153Z" fill="white"/>
<path d="M22.4131 27.5H26.2283V30.0435H22.4131V27.5Z" fill="white"/>
<path d="M22.4131 17.3262H26.2283V19.8696H22.4131V17.3262Z" fill="white"/>
<path d="M42.7611 21.1414V32.587H38.9459C38.2463 32.587 37.6741 33.1592 37.6741 33.8587V30.0435H28.772V21.1414H33.8589V23.6848H37.6741V21.1414H42.7611Z" fill="white"/>
<path d="M33.8584 21.1414H37.6736V23.6848H33.8584V21.1414Z" fill="white"/>
<path d="M45.3043 32.5869C46.0038 32.5869 46.576 33.1591 46.576 33.8587V40.2173C46.576 40.9169 46.0038 41.4891 45.3043 41.4891H44.0325V38.9456H40.2173V41.4891H38.9456C38.246 41.4891 37.6738 40.9169 37.6738 40.2173V33.8587C37.6738 33.1591 38.246 32.5869 38.9456 32.5869H40.2173V35.1304H44.0325V32.5869H45.3043Z" fill="white"/>
<path d="M44.0325 32.5869V35.1304H40.2173V32.5869H44.0325Z" fill="white"/>
<path d="M40.2173 38.9456H44.0325V41.489H40.2173V38.9456Z" fill="white"/>
<path d="M37.6738 43.3967C37.6738 44.0962 37.1016 44.6685 36.4021 44.6685H35.1303L35.0539 44.6495C35.1049 44.4524 35.1303 44.2487 35.1303 44.0326C35.1303 43.2694 34.7934 42.5892 34.2656 42.125H37.6738V43.3967Z" fill="white"/>
<path d="M25.821 42.125H15.1895C15.7173 42.5892 16.0541 43.2694 16.0541 44.0326C16.0541 44.2425 16.0287 44.4524 15.9778 44.6495L16.0541 44.6685H24.9563L25.0327 44.6495C24.9818 44.4524 24.9563 44.2487 24.9563 44.0326C24.9563 43.2694 25.2932 42.5892 25.821 42.125Z" fill="white"/>
<path d="M9.69556 44.6685C8.99605 44.6685 8.42383 44.0962 8.42383 43.3967V42.125H11.832C11.3042 42.5892 10.9673 43.2694 10.9673 44.0326C10.9673 44.2487 10.9928 44.4524 11.0437 44.6495L10.9673 44.6685H9.69556Z" fill="white"/>
<path d="M11.0437 44.6494C10.9927 44.4523 10.9673 44.2486 10.9673 44.0325C10.9673 43.2693 11.3042 42.5891 11.832 42.1249C12.2834 41.7306 12.8687 41.489 13.5108 41.489C14.1528 41.489 14.7443 41.7306 15.1895 42.1249C15.7174 42.5891 16.0542 43.2693 16.0542 44.0325C16.0542 44.2424 16.0288 44.4523 15.9779 44.6494C15.7046 45.7557 14.6999 46.576 13.5108 46.576C12.3216 46.576 11.3169 45.7557 11.0437 44.6494V44.6494Z" fill="white"/>
<path d="M27.5 41.489C28.9053 41.489 30.0435 42.6272 30.0435 44.0325C30.0435 45.4377 28.9053 46.576 27.5 46.576C26.3109 46.576 25.3061 45.7557 25.0329 44.6494C24.982 44.4523 24.9565 44.2486 24.9565 44.0325C24.9565 43.2693 25.2934 42.5891 25.8212 42.1249C26.2727 41.7306 26.8579 41.489 27.5 41.489V41.489Z" fill="white"/>
<path d="M34.2657 42.1249C34.7935 42.5891 35.1304 43.2693 35.1304 44.0325C35.1304 44.2486 35.1049 44.4523 35.054 44.6494C34.7808 45.7557 33.7761 46.576 32.5869 46.576C31.1817 46.576 30.0435 45.4377 30.0435 44.0325C30.0435 42.6272 31.1817 41.489 32.5869 41.489C33.229 41.489 33.8205 41.7306 34.2657 42.1249V42.1249Z" fill="white"/>
<path d="M24.3208 32.5869H31.9512V39.5815H24.3208V32.5869Z" fill="white"/>
<path d="M16.0542 35.7664V39.5816H10.9673V37.674L12.8749 35.7664H16.0542Z" fill="white"/>
<path d="M14.1467 44.0326C14.1467 44.3838 13.862 44.6685 13.5109 44.6685C13.1597 44.6685 12.875 44.3838 12.875 44.0326C12.875 43.6814 13.1597 43.3967 13.5109 43.3967C13.862 43.3967 14.1467 43.6814 14.1467 44.0326Z" fill="#141414"/>
<path d="M33.2229 44.0326C33.2229 44.3838 32.9382 44.6685 32.587 44.6685C32.2359 44.6685 31.9512 44.3838 31.9512 44.0326C31.9512 43.6814 32.2359 43.3967 32.587 43.3967C32.9382 43.3967 33.2229 43.6814 33.2229 44.0326Z" fill="#141414"/>
<path d="M28.136 44.0326C28.136 44.3838 27.8513 44.6685 27.5001 44.6685C27.149 44.6685 26.8643 44.3838 26.8643 44.0326C26.8643 43.6814 27.149 43.3967 27.5001 43.3967C27.8513 43.3967 28.136 43.6814 28.136 44.0326Z" fill="#141414"/>
<path d="M16.6902 35.1305H12.6117L10.3315 37.4107V40.2175H16.6902V35.1305ZM15.4185 38.9457H11.6033V37.9373L13.1383 36.4022H15.4185V38.9457Z" fill="#141414"/>
<path d="M47.2119 15.4185V12.0464L44.3729 7.78809H15.7141L12.875 12.0464V15.4185H14.1468V32.5869H11.34L7.78809 36.1389V43.3967C7.78809 44.4483 8.64409 45.3043 9.69569 45.3043H10.6011C11.0935 46.4255 12.2106 47.2119 13.5109 47.2119C14.8112 47.2119 15.9283 46.4255 16.4207 45.3043H24.5902C25.0826 46.4255 26.1997 47.2119 27.5 47.2119C28.5435 47.2119 29.4635 46.6993 30.0435 45.9206C30.6235 46.6993 31.5434 47.2119 32.5869 47.2119C33.8872 47.2119 35.0044 46.4255 35.4968 45.3043H36.4022C37.4538 45.3043 38.3098 44.4483 38.3098 43.3967V42.0079C38.5094 42.0793 38.7218 42.125 38.9456 42.125H45.3043C46.3559 42.125 47.2119 41.269 47.2119 40.2174V33.8587C47.2119 33.0309 46.6785 32.3314 45.9402 32.0681V15.4185H47.2119ZM16.3947 9.05982H43.6923L45.3881 11.6033H44.6684V12.875H45.9402V14.1468H14.1468V12.875H15.4185V11.6033H14.6988L16.3947 9.05982ZM11.8666 33.8587H17.962V41.4891H15.3989C14.8693 41.0948 14.22 40.8532 13.5109 40.8532C12.8018 40.8532 12.1525 41.0948 11.6229 41.4891H9.05982V36.6654L11.8666 33.8587ZM23.0489 17.962H25.5924V19.2337H23.0489V17.962ZM26.8641 20.5055V17.962H30.6793V20.5055H28.1359V29.4076H26.8641V26.8641H21.7772V29.4076H17.962V17.962H21.7772V20.5055H26.8641ZM34.4945 21.7772H37.038V23.0489H34.4945V21.7772ZM38.3098 24.3207V21.7772H42.125V31.9511H38.9456C38.7218 31.9511 38.5094 31.9967 38.3098 32.0681V29.4076H29.4076V21.7772H33.2228V24.3207H38.3098ZM40.8532 33.2228H43.3967V34.4945H40.8532V33.2228ZM34.475 41.4891C33.9453 41.0948 33.2961 40.8532 32.5869 40.8532C31.5434 40.8532 30.6235 41.3658 30.0435 42.1445C29.4635 41.3658 28.5435 40.8532 27.5 40.8532C26.7902 40.8532 26.1416 41.0948 25.612 41.4891H19.2337V30.6793H37.038V41.4891H34.475ZM25.5924 29.4076H23.0489V28.1359H25.5924V29.4076ZM9.69569 44.0326C9.34547 44.0326 9.05982 43.7469 9.05982 43.3967V42.7608H10.6011C10.4294 43.1511 10.3316 43.5799 10.3316 44.0326H9.69569ZM13.5109 45.9402C12.4593 45.9402 11.6033 45.0842 11.6033 44.0326C11.6033 42.981 12.4593 42.125 13.5109 42.125C14.5625 42.125 15.4185 42.981 15.4185 44.0326C15.4185 45.0842 14.5625 45.9402 13.5109 45.9402ZM16.4207 42.7608H17.962V44.0326H16.6902C16.6902 43.5799 16.5924 43.1511 16.4207 42.7608ZM19.2337 44.0326V42.7608H24.5902C24.4185 43.1511 24.3207 43.5799 24.3207 44.0326H19.2337ZM27.5 45.9402C26.4484 45.9402 25.5924 45.0842 25.5924 44.0326C25.5924 42.981 26.4484 42.125 27.5 42.125C28.5516 42.125 29.4076 42.981 29.4076 44.0326C29.4076 45.0842 28.5516 45.9402 27.5 45.9402ZM32.5869 45.9402C31.5353 45.9402 30.6793 45.0842 30.6793 44.0326C30.6793 42.981 31.5353 42.125 32.5869 42.125C33.6386 42.125 34.4945 42.981 34.4945 44.0326C34.4945 45.0842 33.6386 45.9402 32.5869 45.9402ZM36.4022 44.0326H35.7663C35.7663 43.5799 35.6685 43.1511 35.4968 42.7608H37.038V43.3967C37.038 43.7469 36.7524 44.0326 36.4022 44.0326ZM43.3967 40.8532H40.8532V39.5815H43.3967V40.8532ZM45.9402 40.2174C45.9402 40.5676 45.6545 40.8532 45.3043 40.8532H44.6684V38.3098H39.5815V40.8532H38.9456C38.5954 40.8532 38.3098 40.5676 38.3098 40.2174V33.8587C38.3098 33.5085 38.5954 33.2228 38.9456 33.2228H39.5815V35.7663H44.6684V33.2228H45.3043C45.6545 33.2228 45.9402 33.5085 45.9402 33.8587V40.2174ZM44.6684 31.9511H43.3967V20.5055H31.9511V16.6902H16.6902V30.6793H17.962V32.5869H15.4185V15.4185H44.6684V31.9511Z" fill="black"/>
<path d="M23.6851 31.951V40.2173H32.5872V31.951H23.6851ZM31.3155 38.9456H24.9568V33.2228H31.3155V38.9456Z" fill="#141414"/>
<path d="M16.6904 11.6033H43.3969V12.875H16.6904V11.6033Z" fill="#141414"/>
</g>
<defs>
<clipPath id="clip0">
<rect width="39.4238" height="39.4238" fill="white" transform="translate(7.78809 7.78809)"/>
</clipPath>
</defs>
</svg>
