<svg width="1024" height="1024" viewBox="0 0 1024 1024" fill="none" xmlns="http://www.w3.org/2000/svg">
<rect width="1024" height="1024" fill="white"/>
<rect x="10" y="10" width="1004" height="1004" rx="120" fill="#B8D1F0" stroke="black" stroke-width="20"/>
<path d="M819.806 156.839L867.161 227.871H251.548L298.903 156.839H819.806Z" fill="white"/>
<path d="M867.161 227.871V275.226H251.548V227.871H867.161Z" fill="white"/>
<path d="M843.484 275.226V606.71H796.129V393.613H583.032V322.581H322.581V559.355H346.258V618.548H275.226V275.226H843.484Z" fill="white"/>
<path d="M701.419 748.774V784.29H637.965C629.676 776.949 618.664 772.452 606.71 772.452C580.547 772.452 559.355 793.643 559.355 819.806C559.355 793.643 538.163 772.452 512 772.452C500.046 772.452 489.149 776.949 480.744 784.29H346.258V559.355H701.419V748.774Z" fill="white"/>
<path d="M251.548 772.452C239.594 772.452 228.698 776.949 220.293 784.29H156.839V677.742L216.032 618.548H346.258V784.29H282.804C274.515 776.949 263.503 772.452 251.548 772.452Z" fill="white"/>
<path d="M583.032 322.581V393.613H535.677V559.355H488.323V512H417.29V559.355H322.581V322.581H417.29V369.936H488.323V322.581H583.032Z" fill="white"/>
<path d="M417.29 512H488.323V559.355H417.29V512Z" fill="white"/>
<path d="M417.29 322.581H488.323V369.936H417.29V322.581Z" fill="white"/>
<path d="M796.129 393.613V606.71H725.097C712.073 606.71 701.419 617.363 701.419 630.387V559.355H535.677V393.613H630.387V440.968H701.419V393.613H796.129Z" fill="white"/>
<path d="M630.387 393.613H701.419V440.968H630.387V393.613Z" fill="white"/>
<path d="M843.484 606.71C856.508 606.71 867.161 617.363 867.161 630.387V748.774C867.161 761.798 856.508 772.452 843.484 772.452H819.806V725.097H748.774V772.452H725.097C712.073 772.452 701.419 761.798 701.419 748.774V630.387C701.419 617.363 712.073 606.71 725.097 606.71H748.774V654.065H819.806V606.71H843.484Z" fill="white"/>
<path d="M819.806 606.71V654.065H748.774V606.71H819.806Z" fill="white"/>
<path d="M748.774 725.097H819.806V772.452H748.774V725.097Z" fill="white"/>
<path d="M701.419 807.968C701.419 820.992 690.766 831.645 677.742 831.645H654.064L652.642 831.293C653.59 827.622 654.064 823.83 654.064 819.807C654.064 805.598 647.793 792.932 637.965 784.29H701.419V807.968Z" fill="white"/>
<path d="M480.744 784.29H282.804C292.631 792.932 298.903 805.598 298.903 819.807C298.903 823.714 298.429 827.622 297.481 831.293L298.903 831.645H464.645L466.067 831.293C465.119 827.622 464.645 823.83 464.645 819.807C464.645 805.598 470.917 792.932 480.744 784.29Z" fill="white"/>
<path d="M180.516 831.645C167.492 831.645 156.839 820.992 156.839 807.968V784.29H220.293C210.466 792.932 204.194 805.598 204.194 819.807C204.194 823.83 204.668 827.622 205.616 831.293L204.194 831.645H180.516Z" fill="white"/>
<path d="M205.616 831.293C204.668 827.622 204.194 823.83 204.194 819.806C204.194 805.598 210.466 792.932 220.293 784.29C228.698 776.949 239.594 772.452 251.548 772.452C263.503 772.452 274.515 776.949 282.804 784.29C292.631 792.932 298.903 805.598 298.903 819.806C298.903 823.714 298.429 827.622 297.481 831.293C292.394 851.889 273.688 867.161 251.548 867.161C229.409 867.161 210.703 851.889 205.616 831.293Z" fill="white"/>
<path d="M512 772.452C538.163 772.452 559.355 793.643 559.355 819.806C559.355 845.97 538.163 867.161 512 867.161C489.86 867.161 471.154 851.889 466.067 831.293C465.119 827.622 464.645 823.83 464.645 819.806C464.645 805.598 470.917 792.932 480.744 784.29C489.149 776.949 500.046 772.452 512 772.452Z" fill="white"/>
<path d="M637.966 784.29C647.793 792.932 654.065 805.598 654.065 819.806C654.065 823.83 653.591 827.622 652.643 831.293C647.556 851.889 628.849 867.161 606.71 867.161C580.547 867.161 559.355 845.97 559.355 819.806C559.355 793.643 580.547 772.452 606.71 772.452C618.664 772.452 629.676 776.949 637.966 784.29Z" fill="white"/>
<path d="M452.806 606.71H594.871V736.935H452.806V606.71Z" fill="white"/>
<path d="M298.903 665.903V736.935H204.194V701.419L239.71 665.903H298.903Z" fill="white"/>
<path d="M263.387 819.806C263.387 826.344 258.086 831.645 251.548 831.645C245.01 831.645 239.71 826.344 239.71 819.806C239.71 813.268 245.01 807.968 251.548 807.968C258.086 807.968 263.387 813.268 263.387 819.806Z" fill="#141414"/>
<path d="M618.548 819.806C618.548 826.344 613.248 831.645 606.71 831.645C600.172 831.645 594.871 826.344 594.871 819.806C594.871 813.268 600.172 807.968 606.71 807.968C613.248 807.968 618.548 813.268 618.548 819.806Z" fill="#141414"/>
<path d="M523.839 819.806C523.839 826.344 518.538 831.645 512 831.645C505.462 831.645 500.161 826.344 500.161 819.806C500.161 813.268 505.462 807.968 512 807.968C518.538 807.968 523.839 813.268 523.839 819.806Z" fill="#141414"/>
<path d="M310.742 654.064H234.808L192.355 696.517V748.774H310.742V654.064ZM287.064 725.097H216.032V706.321L244.612 677.742H287.064V725.097Z" fill="#141414"/>
<path d="M879 287.065V224.281L826.142 145H292.568L239.71 224.281V287.065H263.387V606.71H211.13L145 672.84V807.968C145 827.547 160.937 843.484 180.516 843.484H197.372C206.54 864.358 227.339 879 251.548 879C275.758 879 296.556 864.358 305.724 843.484H457.824C466.992 864.358 487.791 879 512 879C531.429 879 548.557 869.456 559.355 854.958C570.153 869.456 587.281 879 606.71 879C630.919 879 651.718 864.358 660.886 843.484H677.742C697.321 843.484 713.258 827.547 713.258 807.968V782.111C716.975 783.441 720.929 784.29 725.097 784.29H843.484C863.063 784.29 879 768.353 879 748.774V630.387C879 614.976 869.069 601.952 855.323 597.05V287.065H879ZM305.239 168.677H813.471L845.045 216.032H831.645V239.71H855.323V263.387H263.387V239.71H287.065V216.032H273.665L305.239 168.677ZM220.934 630.387H334.419V772.452H286.7C276.839 765.11 264.751 760.613 251.548 760.613C238.345 760.613 226.258 765.11 216.396 772.452H168.677V682.644L220.934 630.387ZM429.129 334.419H476.484V358.097H429.129V334.419ZM500.161 381.774V334.419H571.194V381.774H523.839V547.516H500.161V500.161H405.452V547.516H334.419V334.419H405.452V381.774H500.161ZM642.226 405.452H689.581V429.129H642.226V405.452ZM713.258 452.806V405.452H784.29V594.871H725.097C720.929 594.871 716.975 595.721 713.258 597.05V547.516H547.516V405.452H618.548V452.806H713.258ZM760.613 618.548H807.968V642.226H760.613V618.548ZM641.862 772.452C632 765.11 619.913 760.613 606.71 760.613C587.281 760.613 570.153 770.157 559.355 784.654C548.557 770.157 531.429 760.613 512 760.613C498.785 760.613 486.71 765.11 476.848 772.452H358.097V571.194H689.581V772.452H641.862ZM476.484 547.516H429.129V523.839H476.484V547.516ZM180.516 819.806C173.996 819.806 168.677 814.488 168.677 807.968V796.129H197.372C194.176 803.395 192.355 811.378 192.355 819.806H180.516ZM251.548 855.323C231.969 855.323 216.032 839.385 216.032 819.806C216.032 800.227 231.969 784.29 251.548 784.29C271.127 784.29 287.065 800.227 287.065 819.806C287.065 839.385 271.127 855.323 251.548 855.323ZM305.724 796.129H334.419V819.806H310.742C310.742 811.378 308.921 803.395 305.724 796.129ZM358.097 819.806V796.129H457.824C454.627 803.395 452.806 811.378 452.806 819.806H358.097ZM512 855.323C492.421 855.323 476.484 839.385 476.484 819.806C476.484 800.227 492.421 784.29 512 784.29C531.579 784.29 547.516 800.227 547.516 819.806C547.516 839.385 531.579 855.323 512 855.323ZM606.71 855.323C587.131 855.323 571.194 839.385 571.194 819.806C571.194 800.227 587.131 784.29 606.71 784.29C626.289 784.29 642.226 800.227 642.226 819.806C642.226 839.385 626.289 855.323 606.71 855.323ZM677.742 819.806H665.903C665.903 811.378 664.082 803.395 660.886 796.129H689.581V807.968C689.581 814.488 684.263 819.806 677.742 819.806ZM807.968 760.613H760.613V736.935H807.968V760.613ZM855.323 748.774C855.323 755.295 850.004 760.613 843.484 760.613H831.645V713.258H736.935V760.613H725.097C718.576 760.613 713.258 755.295 713.258 748.774V630.387C713.258 623.867 718.576 618.548 725.097 618.548H736.935V665.903H831.645V618.548H843.484C850.004 618.548 855.323 623.867 855.323 630.387V748.774ZM831.645 594.871H807.968V381.774H594.871V310.742H310.742V571.194H334.419V606.71H287.065V287.065H831.645V594.871Z" fill="black"/>
<path d="M440.968 594.871V748.774H606.71V594.871H440.968ZM583.032 725.097H464.645V618.548H583.032V725.097Z" fill="#141414"/>
<path d="M310.742 216.032H807.968V239.71H310.742V216.032Z" fill="#141414"/>
</svg>
